 <svg version="1.0" xmlns="http://www.w3.org/2000/svg"  width="190.000000pt" height="67.000000pt" viewBox="0 0 300.000000 67.000000"  preserveAspectRatio="xMidYMid meet">  <g transform="translate(0.000000,67.000000) scale(0.050000,-0.050000)" fill="#465395" stroke="none"> <path d="M954 1157 c-57 -59 -122 -131 -144 -161 l-40 -53 -280 48 c-330 56 -397 59 -429 20 -37 -45 -25 -53 277 -180 325 -137 309 -112 185 -297 l-97 -144 -98 7 c-84 5 -105 -1 -146 -45 -61 -64 -53 -72 86 -86 107 -11 136 -29 92 -56 -11 -7 -20 -21 -20 -31 0 -31 44 -22 70 15 22 29 30 22 66 -60 73 -166 159 -85 98 93 l-30 88 140 167 c427 513 558 755 420 775 -35 4 -74 -21 -150 -100z"/> <path d="M3648 1048 c-61 -29 -108 -99 -108 -159 0 -16 -11 -29 -25 -30 -15 0 -11 -11 11 -27 41 -32 39 -315 -3 -357 -42 -42 -24 -55 77 -55 107 0 111 3 80 60 -11 20 -24 105 -29 189 l-9 151 70 0 c105 0 150 -189 78 -327 -17 -32 -30 -61 -30 -65 0 -5 46 -8 102 -8 90 0 100 4 86 35 -9 19 -20 118 -24 220 l-7 185 -125 0 c-149 0 -149 0 -134 95 15 89 84 116 121 46 22 -41 101 -58 101 -22 0 74 -138 116 -232 69z"/> <path d="M2722 1038 c-41 -16 -46 -28 -35 -90 9 -60 5 -74 -28 -82 -51 -14 -50 -46 1 -46 38 0 40 -12 37 -153 -4 -144 -1 -156 51 -200 87 -75 155 -49 84 31 -46 53 -53 322 -8 322 46 0 47 35 2 44 -28 5 -34 25 -29 101 6 100 2 104 -75 73z"/> <path d="M2920 1053 c0 -4 14 -36 32 -71 39 -79 33 -465 -7 -505 -44 -44 -27 -57 77 -57 90 0 100 4 86 35 -45 94 -21 355 33 361 107 12 184 -178 127 -313 -15 -37 -28 -71 -28 -75 0 -5 45 -8 100 -8 91 0 127 21 83 48 -9 6 -23 71 -30 144 -19 204 -122 302 -261 249 -30 -12 -56 -21 -58 -21 -2 0 -1 49 3 110 l7 110 -82 0 c-45 0 -82 -3 -82 -7z"/> <path d="M4909 1016 c17 -25 31 -78 31 -119 l0 -74 -61 31 c-226 112 -433 -192 -249 -365 76 -72 143 -89 248 -63 37 10 89 13 115 9 l47 -9 0 317 0 317 -81 0 c-80 0 -81 -1 -50 -44z m-71 -205 c143 -74 138 -371 -6 -371 -118 0 -216 248 -141 356 36 51 70 55 147 15z"/> <path d="M1612 835 c21 -58 21 -512 0 -570 -16 -43 -12 -45 86 -45 56 0 102 3 102 8 0 4 -13 33 -30 65 -48 92 -30 227 20 147 35 -57 248 1 289 79 39 71 25 214 -25 272 -53 62 -230 93 -282 51 -15 -13 -31 -16 -35 -6 -18 46 -142 45 -125 -1z m310 -41 c38 -29 98 -140 98 -182 0 -162 -174 -198 -250 -52 -84 162 25 331 152 234z"/> <path d="M2275 840 c-30 -24 -55 -51 -55 -61 0 -34 73 -20 110 21 44 48 81 51 98 8 25 -65 13 -79 -63 -72 -102 9 -165 -49 -165 -154 0 -114 53 -152 212 -152 l128 0 0 172 c0 237 -125 349 -265 238z m135 -180 c41 -45 49 -149 15 -183 -37 -37 -118 -2 -145 62 -54 130 42 219 130 121z"/> <path d="M4030 864 c-4 -5 6 -30 23 -55 32 -49 30 -248 -2 -344 -15 -42 -10 -45 79 -45 90 0 94 2 79 45 -34 97 -22 324 17 331 90 18 174 -257 94 -306 -57 -35 -17 -70 80 -70 107 0 115 8 69 69 -17 22 -29 82 -29 142 0 152 -56 217 -173 204 -48 -6 -87 -3 -87 5 0 17 -135 38 -150 24z"/> <path d="M5290 861 c-157 -65 -189 -296 -56 -401 108 -84 346 -21 346 92 0 46 -46 23 -76 -37 -49 -102 -152 -88 -225 31 -57 93 -55 94 141 94 168 0 180 3 180 41 0 131 -178 234 -310 180z m148 -73 c99 -83 83 -108 -68 -108 -120 0 -130 3 -130 43 0 112 103 146 198 65z"/> <path d="M5672 866 c-4 -5 4 -33 20 -62 37 -72 36 -265 -1 -315 -46 -61 -38 -69 71 -69 98 0 102 2 87 45 -9 25 -17 108 -17 185 l-2 140 85 -4 c70 -3 85 3 85 33 0 46 -47 65 -106 42 -26 -9 -84 -10 -130 -2 -45 9 -87 12 -92 7z"/> <path d="M912 659 c-69 -90 -74 -104 -48 -135 368 -432 365 -430 399 -355 22 48 12 77 -114 322 -161 311 -140 296 -237 168z"/> </g> </svg> 